<svg xmlns="http://www.w3.org/2000/svg" width="705.521" height="398.642" viewBox="0 0 18666.88 10547.34" shape-rendering="geometricPrecision" text-rendering="geometricPrecision" image-rendering="optimizeQuality" fill-rule="evenodd" clip-rule="evenodd"><defs><clipPath id="a"><path d="M16942.82 2300.68L13009.02 29.5c-37.48-21.65-78.65-30.85-118.89-29.33-40.28-1.52-81.45 7.68-118.93 29.33L8837.4 2300.68c-105.96 61.18-142.29 196.73-81.07 302.69l346.21 599.65c61.18 105.97 196.73 142.33 302.66 81.12l525.43-303.33V6068c0 218.72 177.28 396.07 396.06 396.07h1996.02c-4.73-25.82-9.95-51.6-15.58-77.31-26.23-119.75-61.14-237.79-102.5-353.78-1.86-5.18-3.83-10.28-5.7-15.46-29.43-81-61.36-161.19-97.73-239.51-23.62-51.11-48.85-101.45-75.3-151.23-259.73 84.39-696.9 134.24-1062.19-277.73-516.11-581.92 30.26-1394.84-313.09-1747.99-26.23-27.01-21.53-77.38 16.06-75.33 505.42 27.42 2353.97 238.94 1648.46 1865.76-241.92-294.39-527.85-539.11-834.79-734.24 285.37 252.85 535.97 549.8 727.82 884.06 27.54 47.95 54.03 96.65 79.1 146.13 14.61 28.69 27.8 58.16 41.59 87.26 80.33 170.35 146.31 347.7 195.23 530.53 2.13-7.56 3.99-15.23 6.15-22.76 37-129.48 81.41-256.46 129.78-381.8 71.09-184.1 152.61-363.87 246.39-536.94 78.21-144.75 164.2-284.89 256.87-420.14 220.27-321.43 479.63-614.44 765.49-876.56 55.78-67.22 113.04-133.54 172.47-198.33-385.48 243.64-747.23 542.05-1065.65 892.4-181.12-305.31-363.76-837.44 44.49-1413.81 598.23-844.7 1832.74-348.97 2141.77-953.65 16.06-31.45 63.08-26.12 69.49 8.61 110.51 599.35 443.24 3128.77-1926.38 2654.8-12.37-2.5-24.25-6.67-36.33-10.29-48.99 75.27-95.23 152.28-139.68 230.3-34.35 60.33-67.89 121.13-99.37 183.02-118.86 233.13-215.77 476.77-290.85 726.45-15.68 52.08-31.71 104.14-45.34 156.78a4192.699 4192.699 0 0 0-29.25 120.76h2729.43c218.71 0 396.02-177.32 396.02-396.03V2980.77l525.4 303.37c105.96 61.18 241.51 24.89 302.62-81.12l346.25-599.65c61.25-106 24.89-241.51-81.04-302.69z"/></clipPath></defs><path d="M4355 7390.05c-15.65 101.59-30.49 194.96-44.45 280.06-15.44 94.12-29.89 178.87-43.29 254.13-13.88 78.1-25.42 149.97-34.58 215.56-9.14 65.61-16.1 125.96-20.82 180.93l-.17 1.24c-4.59 53.98-7.57 103.13-8.93 147.45-1.38 44.5-1.11 84.04.74 118.57 1.87 33.99 5.31 63.17 10.35 87.55 4.65 22.48 10.47 40.11 17.56 52.86 5.26 9.44 10.67 16.83 16.16 22.06l.05.05.04-.05c3.47 3.29 7.19 6.45 11.09 9.45l.06.04.04-.04c4.37 3.36 9.4 6.84 15.04 10.49a54.64 54.64 0 0 1 9.2 7.43c1.2.98 2.59 1.95 4.1 2.84 2.68 1.55 5.91 2.96 9.59 4.16a102 102 0 0 0 14.5 3.61c4.69.75 9.81 1.16 15.27 1.16 21.94 0 44.62-4.3 68.05-12.86 24.44-8.92 49.68-22.4 75.7-40.37 26.26-18.16 53.8-40.6 82.54-67.27 28.4-26.35 58.1-57.06 89.06-92.09l.15-.24c26.8-36.23 54.79-76.61 83.9-121.01 28.75-43.89 58.51-91.71 89.24-143.38 30.94-52.02 62.47-107.53 94.66-166.43 19.17-35.07 38.54-71.32 58.2-108.74.04-18.99.51-38.16 1.4-57.52l.13-1.45c9.52-110.58 31.36-216.53 65.48-317.8 16.96-50.35 37.81-100.17 62.51-149.33 24.59-49 52.68-96.54 84.2-142.66l.81-1.04c24.61-35.34 49.12-68.34 73.49-98.93 25.36-31.91 50.69-61.45 75.86-88.63 25.01-27.03 51.05-53.24 78.08-78.52 26.61-24.94 53.66-48.46 81.05-70.45.63-.5 1.29-.92 2.04-1.32l-.03-.01c16.36-8.39 31.04-17.85 44.05-28.25 7.27-5.84 14.84-11.31 22.74-16.36 7.86-5.04 16.26-9.88 25.17-14.46 37.6-24.41 74.81-45.61 111.63-63.53 37.24-18.16 74.97-33.46 113.23-45.87 38.22-12.41 76.82-21.66 115.75-27.8 39.46-6.22 79.44-9.31 119.87-9.31 23.05 0 46.16 1.76 69.35 5.31 23.06 3.53 46.16 8.86 69.24 16.03a648.289 648.289 0 0 1 66.42 24.61c21.77 9.43 43.12 20.14 64.05 32.04.83.48 1.65 1 2.43 1.51l.07-.09a854.726 854.726 0 0 1 62 43.95l.03-.02c19.85 15.44 38.49 31.41 55.86 47.91 18.01 17.08 34.64 35.43 49.73 54.97a478.34 478.34 0 0 1 40.13 60.98c13.91 25.08 26.66 51.7 38.25 79.87 11.32 27.47 21.51 56.6 30.57 87.28 8.79 29.84 16.75 60.77 23.81 92.77 7.13 32.13 13.22 64.69 18.29 97.52.11.77.2 1.52.23 2.25 2.92 33.37 4.98 66.75 6.27 100.13 1.34 34.59 1.85 69.38 1.57 104.25-.94 118.27-14.72 220.66-39.1 336.45l-.78-.37c-22.28 94.59-48.81 183.48-79.63 266.68-32.73 88.32-70.18 169.95-112.38 244.87l-.04.04.08.07c-9.9 17.35-20.65 34.54-32.21 51.6a758.901 758.901 0 0 1-35.72 48.41c-12.72 15.84-24.08 30.99-34.09 45.34a717.61 717.61 0 0 0-29.07 45.39c-.44.73-.95 1.4-1.54 2.03l.05.02c-40.66 41.84-82.78 78.44-126.35 109.75-43.57 31.27-88.13 56.93-133.65 76.9-45.73 20.07-93.68 35.2-143.84 45.34-50.33 10.18-102.34 15.25-156.04 15.25-31.74 0-63.09-2.34-94.01-6.95-31.17-4.66-61.61-11.67-91.17-20.98-29.03-9.13-57.03-19.53-83.85-31.17-27.1-11.76-52.82-24.72-77.09-38.8-.72-.4-1.4-.82-2.09-1.28l-.03.05c-57.98-37.32-109.46-79.52-154.31-126.49-22.26-23.32-42.95-47.93-61.94-73.75-19.03-25.85-36.16-52.51-51.35-79.87-25.03-45.16-46.63-91.8-64.79-139.78-2.08-5.52-4.13-11.08-6.12-16.65-6.42 12.35-12.86 24.45-19.31 36.3-29.73 54.5-60.9 105.24-93.54 152.12-32.33 46.48-65.73 88.51-100.1 126.06l-.32.3.05.07c-35.65 35.39-71.36 66.4-107.12 93.05-35.88 26.76-71.74 49.07-107.54 66.93-36.2 18.01-72.43 31.54-108.58 40.55-36.68 9.15-73.38 13.71-110.1 13.71-23.27 0-45.92-1.76-67.91-5.31-22.37-3.59-44.17-9.05-65.36-16.38-20.7-7.17-40.91-15.54-60.52-25.11l-1.25-.64a563.677 563.677 0 0 1-56.79-31.95c-35.44-20.12-70.26-48.06-104.33-83.77a579.768 579.768 0 0 1-47.47-56.52c-14.56-19.81-27.68-40.16-39.18-60.94-57.84-104.33-92.91-238.21-105.17-401.58-6.05-80.85-6.87-169.45-2.5-265.77 4.39-96.45 13.95-200.55 28.67-312.31l-.02-.01c11.29-113.37 27.98-233.4 50.12-360.04 21.94-125.73 49.26-257.2 81.83-394.38 32.79-137.99 70.64-280.93 113.61-428.82 43.36-149.1 91.81-303.5 145.41-463.08l.25-.63c33.46-109.46 69.02-213.24 106.69-311.25 37.75-98.39 77.67-190.98 119.65-277.81 41.92-86.72 85.74-168.39 131.4-244.9 45.59-76.42 92.99-147.67 142.23-213.73l.04-.07c48.22-63.79 96.19-120.04 143.84-168.69 47.91-48.87 95.23-89.88 141.9-122.94 47.17-33.41 93.43-58.57 138.74-75.48 46.06-17.21 91.04-25.79 134.97-25.79 18.68 0 36.44 1.18 53.24 3.57 17.31 2.46 33.83 6.27 49.53 11.4a538.096 538.096 0 0 1 42.9 16.11c14.03 5.94 27.96 12.61 41.7 19.88 1.31.69 2.59 1.45 3.84 2.24v-.08c14.92 9.61 29.14 19.74 42.48 30.34 13.03 10.34 25.35 21.31 36.9 32.86l.02-.01c11.81 11.8 23.01 24.98 33.54 39.45 10.22 14.07 19.98 29.39 29.17 46 31.04 55.97 50.48 119.47 58.39 190.55 7.68 69.52 4.39 146.6-9.94 231.25-14.2 83.98-39.55 176.18-76.03 276.65-36.17 99.56-83.63 207.89-142.39 324.9l-.01.02.04.07c-57.43 114.2-123.9 232.53-199.3 354.94-75.57 122.69-159.9 249.22-253 379.48-92.64 129.69-194.96 263.27-306.96 400.67-111.92 137.29-232.2 276.88-360.89 418.76a11.42 11.42 0 0 1-3.27 2.47zm4242.77-279.89c31.45-28.6 64.81-55.72 100.12-81.29 35.02-25.37 71.91-49.15 110.64-71.35 38.69-22.14 77.28-41.55 115.72-58.18 38.75-16.74 77.19-30.69 115.32-41.73 38.36-11.13 76.8-19.56 115.27-25.16 38.79-5.66 77.21-8.48 115.22-8.48 25.29 0 50.19 1.75 74.67 5.18 24.79 3.56 49.22 8.88 73.3 15.95 24.01 7.12 46.81 15.44 68.26 25.01 21.61 9.63 42.05 20.62 61.16 32.85a455.861 455.861 0 0 1 59.78 41.03c19.14 15.49 36.98 32.55 53.48 51.15 15.94 17.96 31.41 37.81 46.31 59.41 11.63 16.82 22.87 34.61 33.75 53.35l29.39-188.24c1.08-6.6 6.54-10.14 14.05-10.14l-.02-.1h354.99c13.4 0 30.28 10.86 37.71 24.27 3.19 5.75 4.15 11.05 3.06 15.22l-278.76 1450.76.59 10.8c.09 1.05.02 2-.09 2.94l.02.02c-4.56 34.36-7.87 66.09-9.82 95.18-1.96 28.98-2.64 54.48-1.96 76.47.68 21.76 2.6 40.72 5.83 56.86 2.86 14.33 6.59 25.64 11.15 33.87 4.2 7.56 8.41 14.32 12.59 20.21 3.78 5.39 7.45 9.89 10.88 13.51l1.22 1.32c4.73 4.92 9.1 9.4 13.12 13.4l.01-.01 5.53 5.45c2.22.71 4.59 1.48 7.14 2.27 6.17 1.85 13.6 3.87 22.25 6 7.8 1.91 15.38 3.33 22.75 4.24l.8.13c7 .82 14.44 1.24 22.23 1.24 35.98 0 78.67-15.64 128.07-46.93 25.09-15.88 51.76-36.6 79.97-62.14 28.12-25.44 57.53-55.58 88.28-90.37l.5-.54c30.43-38.1 61.54-78.06 93.32-119.76 31.62-41.48 66.15-87.72 103.51-138.61 36.31-49.44 72.88-102.7 109.69-159.71 8.66-13.4 17.34-27.03 26.06-40.9-1.07-46.92.29-95.2 4.01-144.86l.04-.45h-.01c6.7-59.71 17.52-118.17 32.41-175.29a1201.075 1201.075 0 0 1 56.92-166.88c23.04-54.21 49.94-106.46 80.61-156.74 30.73-50.37 65.27-98.75 103.5-145.03 10.15-12.36 24.06-29.15 42.9-51.77 15.95-19.11 29.91-35.79 42.11-50.23 14.1-16.64 28.95-32.54 44.58-47.57a634.39 634.39 0 0 1 48.4-42.09 569.146 569.146 0 0 1 90.27-82.95 577.54 577.54 0 0 1 52.11-34.42c17.78-10.43 36.53-20.15 56.29-29.15 38.32-21.94 76.34-40.93 114-57.02 38.27-16.35 75.58-29.48 111.95-39.37l.79-.2c36.25-9.87 72.68-17.31 109.19-22.38 36.96-5.09 73.27-7.65 108.9-7.65 27.18 0 54.17 1.72 80.98 5.18 26.99 3.49 53.43 8.74 79.22 15.66 25.81 6.94 50.56 15.16 74.16 24.63 23.71 9.52 46.25 20.36 67.57 32.51.84.47 1.68 1 2.46 1.5l.04-.08c22.44 14.42 43.87 30.6 64.27 48.49a546.052 546.052 0 0 1 56.26 57.16c16.68 19.68 32.88 40.98 48.45 63.78 4.47 6.53 8.81 13.15 13.13 19.82l49.61-180.96c1.57-5.79 6.84-8.8 13.81-8.8l-.02-.03h341.84c13.4 0 30.29 10.86 37.71 24.27 3.31 5.94 4.18 11.38 2.98 15.62l-337.18 1691.94c22.91-12.14 45.67-24.72 68.27-37.76 42.84-24.71 84.37-50.57 124.49-77.6 40.39-27.19 79.65-55.27 117.71-84.24 36.97-28.16 73.6-57.89 109.94-89.21l.93-.71c35.39-30.57 69.37-61.88 101.85-93.98 32.37-32 64.3-65.85 95.8-101.47 7.18-8.11 14.25-16.29 21.3-24.49-3.33-50.17-3.14-100.99.47-152.49l.2-1.56c4.96-50.7 12.93-101.78 23.82-153.2 10.94-51.71 24.93-104.18 41.98-157.34 34.08-106.32 85.74-212.41 154.93-318.28l.07-.1h-.01c26-38.98 53.93-76.78 83.72-113.31 29.56-36.31 60.14-70.33 91.71-101.99 32.01-32.04 65.71-61.68 101.08-88.85 35.3-27.08 72.35-51.74 111.16-73.99l.26-.16c39.75-24.38 79.27-45.62 118.5-63.7 39.63-18.21 79.59-33.52 119.86-45.84 40.21-12.32 80.4-21.56 120.5-27.7 40.62-6.22 81.13-9.31 121.41-9.31 24.64 0 48.32 1.18 71.08 3.48 22.9 2.35 44.46 5.83 64.57 10.54l1.29.32c19.67 4.59 37.85 9.83 54.54 15.68 17.68 6.19 33.87 13.19 48.5 20.94.73.36 1.45.77 2.14 1.19 17.21 9.59 33.38 19.84 48.34 30.61 15.66 11.27 30.15 23.24 43.48 35.87l.03.03.05-.03c13.55 12.86 26.55 27.58 38.82 44.06 11.88 15.86 23.06 33.31 33.55 52.2 23.72 42.76 37.96 86.6 42.77 131.49 4.72 43.79.31 88.47-13.14 133.95-13.3 45.01-35.64 91.55-67.04 139.45-31.01 47.37-71.29 96.64-120.74 147.79l-.26.26.02.02c-50.29 48.55-107.07 94.69-170.24 138.39-62.98 43.56-132.35 84.69-207.99 123.27-75.53 38.56-158.23 75.19-248.04 109.86-90.52 34.99-187.29 67.75-290.33 98.28-1.24.36-2.6.59-3.97.69-4.07 29.89-8.04 57.75-11.98 83.41-4.78 31.66-9.8 61.92-14.87 90.77-5.08 28.78-8.99 56.38-11.79 82.8l-.01.04.07.04c-2.79 26.54-4.61 53.02-5.36 79.38-.74 25.71-.24 49.79 1.53 72.19 1.77 22.55 4.66 42.96 8.68 61.22 4.11 18.5 9.2 36.11 15.33 52.78 5.82 15.81 12.63 30.77 20.4 44.84 6.56 11.81 13.54 22.68 20.85 32.51 7.27 9.76 14.91 18.66 22.92 26.66l.01-.01c7.33 7.36 15.72 14.22 25.08 20.51l1.62 1.11c9.17 6.02 19.54 11.66 30.94 16.79 2.32 1.05 4.56 2.27 6.72 3.64l.05-.02c11.13 7.14 22.62 13.15 34.35 17.9 12.3 5 25.49 8.97 39.39 11.81 15.09 3.09 30.5 5.39 46.09 6.92 15.45 1.5 31.79 2.28 48.93 2.28 42.55 0 85.94-4.28 130.16-12.79 44.75-8.59 90.3-21.49 136.6-38.69 46.7-17.29 94.26-38.96 142.66-64.97 48.44-26.03 97.62-56.27 147.53-90.79 45.1-37.21 90.1-77.01 135.06-119.4 44.18-41.67 89.47-87 135.83-136.07l.94-.84c44.98-47.6 89.92-98.65 134.83-153.08 44.88-54.32 89.82-112.24 134.76-173.7 2.57-3.56 7.09-5.21 12.5-5.09l205.45-1055.27c1.23-6.32 6.63-9.65 13.96-9.65l-.05-.12h335.29c13.37 0 30.27 10.86 37.68 24.27 3.42 6.14 4.24 11.75 2.83 16.03l-78.43 451.37c8.76-12.58 17.45-24.9 26.07-36.96 34.77-48.65 69.56-94.57 104.25-137.69 34.32-42.64 68.4-82.02 102.16-118.09 33.91-36.06 67.06-68.39 99.46-96.89.47-.43.98-.78 1.51-1.13 34.76-28.52 69.48-53.47 104.14-74.8 35.18-21.65 70.64-39.77 106.27-54.34 35.79-14.65 71.58-25.6 107.41-32.94 36.52-7.42 72.91-11.13 109.11-11.13 24.53 0 48.47 1.16 71.8 3.47 23.42 2.35 45.68 5.82 66.7 10.41 43.74 9.62 84.77 26.53 123.02 50.7 19.81 9.84 38.46 21.16 55.96 33.98a369.267 369.267 0 0 1 51.05 45.26c14.99 15.94 28.79 32.56 41.27 49.75a530.923 530.923 0 0 1 34.55 54.2c9.54 17.23 18.05 39.09 25.49 65.52 7.12 25.2 13.25 54.6 18.44 88.11 7.17 46.57 12.55 99.75 16.08 159.52 13.17-18.65 26.31-36.81 39.39-54.56 33.09-44.81 66.26-87.19 99.51-127 32.96-39.49 65.93-76.43 98.88-110.68 33.33-34.64 66.05-66.1 98.23-94.34.42-.43.91-.77 1.45-1.11 34.94-28.68 69.97-53.68 105.04-74.9 35.86-21.71 72.1-39.85 108.74-54.38 73.93-29.29 147.17-43.95 219.76-43.95 22.5 0 44.89 1.16 67.03 3.47 22.17 2.32 43.8 5.8 64.89 10.41 44.47 9.79 86.14 27.11 124.94 51.92 17.72 9.96 35.03 21.54 51.8 34.61 17.25 13.47 34.29 28.74 51.08 45.83 16.7 16.99 31.84 34.5 45.39 52.42 13.58 18.03 25.71 36.62 36.27 55.7 10.45 18.81 19.65 39.2 27.68 61.12 7.76 21.27 14.33 44.01 19.68 68.16 5.15 23.46 9.44 47.88 12.8 73.19 3.32 25.08 5.69 51.03 7.15 77.86l.03.63.06.01c.46 28.75-.36 57.45-2.45 86.07a930.567 930.567 0 0 1-10.01 84.24c-4.8 28.89-9.98 57.23-15.56 85.12-5.88 29.36-12.37 59.36-19.46 89.96-.1.55-.26 1.07-.46 1.6l-150.16 509.69c-28.98 98.38-58.8 191.37-70.69 293.47-14.22 122-1.89 241.36 195.13 184.16 29.33-8.48 59.47-21.23 90.3-38.18 62.87-34.52 107.73-55.52 177.65-124.86l-.04-.06c35.34-35.08 71.1-73.76 107.3-116.02 36.3-42.4 73.35-88.85 111.14-139.21 37.58-50.15 74.98-104.71 112.14-163.6 37.06-58.77 74.05-122.15 110.87-190.11 4.91-8.96 20.62-8.26 35.14 1.65l1.96 1.4 118.68 84.73c13.54 9.68 20.73 23.93 16.78 32.75l.05.01c-32.13 72.14-65.44 140.07-99.92 203.74-34.08 62.97-69.32 121.63-105.68 175.89-36.04 53.83-73.69 104.26-112.83 151.21-186.42 223.51-497.37 418.14-801.94 366.51-558.84-94.79-169.24-1332.52-68.46-1672.98l.3-.95 10.15-37.18c3.08-11.3 6.36-23.53 9.95-37.17 3.08-11.75 5.27-22.43 6.52-32.01 1.25-9.7 1.66-18.36 1.26-25.92-.06-1.32-.01-2.56.24-3.71 1.53-7.97 2.5-15.77 2.84-23.37.32-7.22.08-14.17-.78-20.89-.86-6.89-1.95-12.71-3.27-17.39l-.1-.01c-1.1-3.95-2.3-7.07-3.53-9.3-5.63-10.15-12.26-19.19-19.82-27.14-3.77-3.94-7.82-7.72-12.04-11.16-4.16-3.41-8.94-6.83-14.26-10.28l-1.6-1.04c-3.77-2.36-7.36-4.24-10.7-5.68-3.41-1.43-6.82-2.47-10.24-3.09l-.09-.01.03.01c-10.39-1.86-25.8-2.79-46.15-2.79-52.39 0-104.29 10.5-155.71 31.55-52.08 21.27-103.97 53.53-155.58 96.71-52.14 43.6-104.37 97.38-156.62 161.21-52.39 63.98-105.27 138.71-158.65 224.07-53.16 85.08-102 176.97-146.5 275.61-44.6 98.85-84.82 204.48-120.7 316.79-35.84 112.19-68.57 230.54-98.27 354.97-29.56 123.95-55.95 253.79-79.22 389.47-1.12 6.55-6.58 10.02-14.04 10.02l.01.02h-374.71c-13.4 0-30.29-10.86-37.71-24.27-3.46-6.22-4.23-11.89-2.78-16.17l332.75-1542.36 1.45-31.63c.04-1.02.2-1.99.43-2.9l-.07-.03c12.61-47.9 20.74-87.8 24.33-119.61l-.02-.02c1.71-15.45 1.93-28.72.59-39.77l.02-.08-.07-.01c-1.13-9.4-3.2-16.86-6.27-22.39-3.02-5.46-6.17-10.37-9.29-14.64-3.13-4.27-6.67-8.47-10.52-12.5-3.79-3.94-7.82-7.72-12.04-11.16-4.37-3.59-9.14-7.03-14.27-10.33l-.01.05c-3.98-2.55-7.94-4.61-11.85-6.14l-1.72-.72a58.234 58.234 0 0 0-11.41-2.82l-.1-.04v.04c-6.25-.97-13.06-1.7-20.29-2.19-7.04-.5-14.84-.73-23.36-.73-52.36 0-104.29 10.5-155.72 31.55-52.08 21.27-103.95 53.53-155.58 96.71-52.18 43.6-104.39 97.38-156.6 161.21-52.3 63.89-105.14 138.46-158.4 223.68a5491.564 5491.564 0 0 0-44.65 87.39c-15.13 30.22-30.27 61.2-45.44 92.76-15.26 31.8-30.03 64.26-44.22 97.35a2800.255 2800.255 0 0 0-41.47 102.3l-.22.58c-55.95 135.4-105.74 283.8-149.27 445.21-21.72 80.45-41.51 163.55-59.34 249.24-17.96 86.13-33.71 173.53-47.25 262.12-1.01 6.64-6.46 10.19-14.04 10.21l.06.11h-381.28c-13.4 0-30.29-10.86-37.73-24.27-3.43-6.19-4.21-11.87-2.75-16.14l76.07-390.81a1806.56 1806.56 0 0 1-32.68 35.89c-48.71 52.14-97.41 100.3-146.01 144.49-49.16 44.7-98.55 85.71-148.18 123.08-.54.43-1.12.79-1.74 1.09-110.44 70.24-217.11 124.17-319.95 161.7-52.02 18.98-103.25 33.22-153.6 42.67-50.98 9.56-101.12 14.34-150.5 14.34-31.63 0-62.7-2.03-93.05-6.04-30.25-4-59.96-10.12-89.09-18.3l-.1-.02v.02c-29.02-8.17-57.75-18.4-86.15-30.64-28.49-12.29-56.74-26.69-84.63-43.12a812.395 812.395 0 0 1-80.01-53.7c-25.36-19.34-49.58-40.26-72.61-62.65-23.33-22.67-45.04-47.31-65.01-73.77-19.79-26.24-38.01-54.4-54.68-84.45-27.36-49.39-50.78-99.21-70.15-149.47-4.98-12.85-9.68-25.8-14.14-38.77l-19.15 18.15c-39.63 37.28-81.02 74.61-124.07 112.03l-.15.15.07.07c-41.83 34.97-86.45 69.63-133.9 103.98-46.69 33.8-96.32 67.37-148.87 100.64a2838.35 2838.35 0 0 1-163.14 95.81c-54.33 29.53-111.32 58.35-171.07 86.39-19.07 130.2-41.94 252.34-68.54 366.34-27.18 116.52-58.41 225.44-93.58 326.71-35.18 101.12-74.18 194.21-117.01 279.17-42.73 84.81-89.31 161.47-139.7 229.95l-.4.53c-51.25 70.42-104.31 132.06-159.19 184.86-55.34 53.29-112.57 97.64-171.57 133.1-59.24 35.59-121.2 62.36-185.8 80.31-64.98 18.02-132.23 27.05-201.78 27.05-24.52 0-48.46-1.17-71.77-3.48-23.43-2.32-45.68-5.78-66.73-10.42-21.93-4.82-43.71-11.45-65.23-19.89-.82-.32-1.67-.64-2.45-1.03-20.91-8.32-41.67-18.33-62.17-30.04l-.64-.36a476.432 476.432 0 0 1-50.69-32.72c-16.69-12.32-32.76-25.82-48.21-40.43l-.01-.02-.07.02c-15.69-14.9-30.24-31.06-43.64-48.49-13.17-17.12-25.03-35.23-35.64-54.33-29.67-53.49-48.49-108.89-56.53-166.14-7.91-56.27-5.31-114.34 7.78-174.06 12.94-59.13 36.8-120.15 71.5-183.09 34.58-62.63 79.86-127.06 135.84-193.26l.38-.47c57.14-63.88 122.61-127.43 196.33-190.61 73.57-62.99 155.81-125.98 246.68-188.83 90.81-62.81 190.26-125.19 298.39-187.08 107.42-61.5 223-122.48 346.77-182.91l83.76-412.38c-23.83 41.51-48.23 80.22-73.19 116.13-30.7 44.09-62.12 84.95-94.33 122.47-32.48 37.89-65.43 72.19-98.76 102.86-.5.44-1.06.83-1.61 1.22-35.03 28.77-70.69 53.8-106.87 75.07-36.82 21.64-74.79 39.76-113.85 54.35-78.27 29.24-155.77 43.87-232.59 43.87-25.18 0-50.52-2.09-75.93-6.22-25.4-4.15-50.5-10.39-75.26-18.68-24.07-8.05-47.38-17.08-69.77-27.01a702.51 702.51 0 0 1-64.9-32.67c-2.16-1.23-4.21-2.6-6.14-4.07-24.44-18.76-47.51-38.25-69.13-58.47-21.95-20.54-42.52-41.83-61.62-63.77-19.09-21.93-37.36-45.45-54.74-70.54-17.28-24.9-33.45-50.94-48.52-78.09-26.28-47.41-48.41-96.41-66.4-147.11-34.51 50.87-69.24 98.17-104.15 141.88-36.42 45.56-72.78 86.93-109.03 124.1l-.73.68c-35.27 35.02-70.73 65.55-106.26 91.67-35.67 26.22-71.25 47.73-106.7 64.52-35.51 16.81-70.14 29.49-103.77 37.93h-.01l.05.1c-34.24 8.56-67.54 12.89-99.97 12.89-41.64 0-81.54-4.7-119.63-14.12-19.07-4.67-38.33-10.63-57.73-17.72-19.14-7.07-38.54-15.35-58.2-24.95-1.81-.86-3.56-1.84-5.23-2.94l-.01.01c-38.21-24.54-73.57-55.17-106.04-91.74-16.05-18.08-30.82-36.67-44.3-55.75-13.63-19.3-26.25-39.43-37.84-60.33-13-23.46-23.65-46.95-32-70.43-4.94-13.95-9.07-25.36-12.32-34.04-3.66-9.85-8.43-22.4-14.3-37.53-.73-1.87-1.22-3.68-1.45-5.39-2.54-11.43-5.6-24.42-9.19-38.92-3.11-12.61-6.91-27.3-11.35-43.8l-4.88-17.95c-6.19 11.36-12.31 22.52-18.47 33.53-15.9 28.46-32.37 56.78-49.44 84.94-16.84 27.81-34.66 54.17-53.46 79-19.15 25.33-39.1 48.95-59.78 70.81-.36.4-.77.77-1.21 1.12-10.67 10.17-21.75 20.63-33.39 31.38-10.54 9.8-21.72 20.02-33.37 30.51-10.3 9.26-21.19 18.89-32.67 28.86-11.57 10.03-22.3 19.19-32.01 27.34-.45.33-.93.69-1.42.99l.01.02c-36.52 22.19-72.38 41.84-107.51 58.93-35.18 17.07-70.09 31.79-104.73 44.12-34.56 12.3-69.62 21.53-105.12 27.79-35.91 6.23-71.88 9.39-107.87 9.39-54.99 0-107.43-7.02-157.31-21.05a763.598 763.598 0 0 1-72.57-24.32c-23.97-9.36-47.35-19.87-70-31.5-1.51-.77-3.02-1.64-4.46-2.57l.03.03c-25.99-16.7-50.27-34.65-72.73-53.67-22.35-18.96-43.21-39.34-62.52-61.09-18.9-21.3-36.83-44.06-53.7-68.26-16.94-24.31-32.99-50.12-48.12-77.36-27.36-49.41-50.69-100.19-69.96-152.3-19.18-51.84-34.14-104.58-44.87-158.15-21.42-106.89-26.39-218.03-14.97-333.33l-.06-.03c19.18-312.51 201.47-613.99 438.86-829.8zM3349.1 5491.14l110.18 92.03c-52.21 87.66-100.75 181.88-145.66 282.67-44.91 100.8-84.95 210.37-120.14 328.71-32.78 122.7-58.76 254.5-77.13 394.45-18.38 139.92-31.25 291.43-37.77 453.59 102.12-13.63 612.56-116.99 711.68-139.32l-40.37 164.37c-84.39 43.37-597.43 142.01-690.49 165.6 1.09 341.85-33.26 642.37-102.18 900.63-68.9 258.26-171.29 475.55-306.36 650.84-135.08 175.29-308.01 304.88-517.96 387.85-209.92 82.97-451.2 124.91-722.91 124.91-109.56 0-217.21-12.18-322.46-36.16-105.24-23.97-205.29-58.07-299.71-101.89-101.26-48.21-187.33-104.36-257.34-167.64-69.96-63.21-127.6-135.05-171.02-213.65-33.71-61.05-54.84-116.44-61.54-164.36-6.7-47.91-.45-94.49 18.8-138.05 17.3-39.09 45.24-69.34 82.22-88.75 37-19.44 82.24-29.6 134.78-29.6 35.1 0 68.55 4.72 99.36 13.16 30.85 8.46 63.74 24.13 97.82 46.02 27.27 17.55 53.96 39.78 79.18 65.76 25.22 26 47.13 55.08 63.81 85.45 16.7 30.37 28.47 57.12 33.89 78.9 5.42 21.79 4.46 41.64-3.32 59.15-7.82 17.52-20.54 31.01-37.32 39.47-16.76 8.43-38.73 13.13-65.03 13.13-17.51 0-37.99-3.29-61.35-9.86-23.35-6.57-45.02-12.04-64.98-16.43-26.77-8.79-49.35-15.65-66.82-19.74-17.45-4.08-28.86-6.57-33.23-6.57-17.53 0-31.34 3.59-40.54 9.86-9.24 6.27-16.24 14.23-20.12 23-3.89 8.77-5.46 20.05-4.78 32.89.66 12.85 6.23 28.84 15.66 46.01 31.21 56.72 73.5 106.56 124.75 147.91 51.24 41.33 115.56 79.99 191.98 115.04 73.97 30.69 153.25 54.91 237.29 72.32 84.11 17.4 170.17 26.28 257.82 26.28 192.83 0 362.76-34.27 508.87-101.89 146.12-67.63 268.62-167.61 366.64-299.1 102.41-131.47 188.69-317.76 258.83-558.79 70.12-241.05 127.57-534.69 172.28-880.92-52.13 8.77-103.31 20-152.73 32.86-49.4 12.85-95.94 28.51-138.83 46.03-47.24 17.53-94.18 36.47-139.92 55.89-45.77 19.43-91.46 40.52-136.31 62.43-82.84 48.22-162.62 104.26-239.04 167.67-76.38 63.4-149.88 134.74-220.09 213.64L1500 7811.77c70.2-78.92 147.03-152.61 229.59-220.24 82.59-67.64 173.28-128.19 271.18-180.79 95.53-56.97 200.57-105.49 314.28-144.64 113.72-39.14 232.6-74.49 355.83-105.18 29.89-175.31 64.93-342.15 104.27-499.62 39.34-157.48 87.5-304.6 143.65-440.46 58.09-140.25 122.9-270.76 194.01-391.14 71.11-120.37 151.21-231.2 239.93-332.01l-3.64-6.55zm1208.76-558.81l100.7 98.64c-40.95 52.55-89.15 98.91-143.68 138.07-54.52 39.15-119.99 70.08-195.51 92.01-68.69 26.29-147.88 46.31-236.71 59.14-88.85 12.84-184.1 19.75-284.9 19.75-131.47 0-299.42-10.17-502.87-29.59-203.48-19.43-444.68-47.1-722.7-82.19-273.63-35.05-509.35-62.74-706.23-82.17-196.91-19.43-352.79-29.59-466.71-29.59-254.24 0-468.54 33.18-642.19 98.63-173.62 65.43-315.47 162.14-424.69 289.25-104.85 127.09-159.33 266.43-162.98 417.46-3.64 151.02 40.78 310.34 132.78 476.59 48.33 87.32 107.33 167.82 175.75 239.97 68.42 72.13 144.73 132.58 228.44 180.78 86.15 52.58 176.1 92.17 269.4 118.33 93.31 26.16 190.61 39.44 291.43 39.44 166.51 0 315.67-29.71 447.09-88.75 131.43-59.05 248.05-143.53 349.43-253.1 99.01-113.93 173.2-245.73 221.77-394.45 48.57-148.7 69.26-317.72 61.17-506.18l121.29-6.56c33.35 210.35 29.6 398.06-10.47 562.08-40.07 164.05-110.78 310.08-211.24 437.15-96.07 127.1-217.7 222.71-364.08 285.97-146.35 63.25-316.38 95.33-509.2 95.33-131.48 0-256.76-16.42-375.75-49.3-119.04-32.9-234.04-82.19-345-147.93-104.1-61.34-199.13-135.85-284.98-223.51-85.87-87.63-159.43-186.6-219.89-295.83-109.02-196.96-157.58-383.8-145.51-558.78 12.07-175.03 84.62-337.47 216.74-486.49 134.11-153.39 316.15-266.57 545.29-338.56 229.17-72 504.14-108.46 824.06-108.46 149.02 0 326.72 7.96 532.1 22.99 205.45 15.04 441.03 40.57 705.88 75.61 262.46 30.68 485.4 55.06 667.93 72.3 182.53 17.25 322.48 26.31 418.89 26.31 74.49 0 143.1-3.6 204.89-9.87 61.82-6.28 119.22-14.22 171.3-23 21.43-8.77 44.25-17.83 67.6-26.29 23.35-8.47 48.65-17.83 74.19-26.32 25.52-8.48 49.6-20 70.51-32.85 20.9-12.84 41.3-26.29 60.3-39.44l-3.64-6.59zm1857.86 2310.35s-.79-1.27-1.85-3.3c-1.05-2.01-.83-5.47 1.13-9.86-2.43-4.38-4.43-7.83-5.46-9.87-1.04-2.01-3.2-5.62-5.48-9.87-2.27-4.21-4.87-8.74-7.3-13.15-2.43-4.37-3.88-10.95-4.35-19.7-2.43-4.39-4.88-8.77-7.29-13.15-2.43-4.38-4.87-8.78-7.28-13.14-12.17-21.94-26.99-42.75-44.51-62.46-17.48-19.72-36.49-36.15-56.89-49.32-20.46-13.13-41.26-22.99-62.41-29.57-21.21-6.59-42.75-9.86-64.65-9.86-52.61 0-107.32 14.39-163.69 42.72-56.35 28.31-111.58 73.4-165.21 134.78-60.46 56.98-113.62 127.09-159.49 210.37-45.85 83.26-95.64 175.31-149.29 276.09-44.45 109.58-82.18 211.48-113.19 305.71-31.03 94.21-50.74 185.15-59.11 272.82-15.18 83.27-20.49 156.68-15.94 220.21 4.54 63.56 19 117.24 43.29 161.06 17.03 30.69 36.12 57.16 56.89 78.89 20.74 21.72 47.17 41.65 78.82 59.17 27.24 17.52 57.54 30.66 90.9 39.47 33.34 8.76 67.55 13.13 102.62 13.13 83.25 0 161.23-19.87 233.44-59.16 72.17-39.29 140.45-96.42 204.34-170.92 57.06-78.92 112.1-177.7 164.66-295.84 52.57-118.16 102.08-258.57 148.02-420.76-2.41-4.36-6.57-9.84-12.4-16.43-5.84-6.54-9.98-12.03-12.4-16.43-9.26-8.76-18.61-19.72-28.07-32.86-9.51-13.13-16.68-24.11-21.53-32.85-11.66-13.17-21.63-25.21-29.91-36.17-8.28-10.97-14.83-20.81-19.69-29.58-14.57-26.31-26.52-51.68-35.34-75.6-8.82-23.95-15.17-47.14-18.56-69.04.99-21.91 1.4-44.92 1.17-69.03-.23-24.1 1.14-49.3 4.12-75.57 5.9-52.62 21.28-92.05 46.12-118.36 24.87-26.27 58-41.64 99.41-46.01l-3.64-6.56zm5269.14-180.81c-60.52 32.73-121 82.19-180.96 147.91-57.55 70.12-109.14 151.36-154.39 243.24-45.25 91.9-90.05 197.23-134 315.58-40.06 109.55-73.41 211.45-100.05 305.68-26.63 94.2-46.57 180.79-59.81 259.67-9.96 88.62-36.97 229.56 25.19 341.86 9.59 17.35 22.73 35.03 39 52.59 16.3 17.52 33.45 30.66 51.5 39.42 13.57 8.78 30.99 16.47 52.17 23.01 21.17 6.59 42.72 9.89 64.63 9.89 52.6 0 106.05-14.27 160.38-42.75s112.92-69.03 175.82-121.62c58.49-52.58 113.09-116.14 163.8-190.65 50.75-74.49 97.6-159.95 140.54-256.37 58.06-100.82 104.05-201.62 138.03-302.42 33.93-100.81 59.27-199.4 75.9-295.82 14.24-100.82 18.85-187.37 13.8-259.68-5.01-72.32-19.83-130.51-43.99-174.2-14.45-26.17-31.11-48.22-49.61-65.73-18.48-17.55-37.93-32.89-58.38-46.04-18-8.76-38.69-16.43-62.06-23.01-111.34-31.28-189.1 2.45-257.51 39.44zm1746.21 798.75c46.17-12.01 90.28-24.9 132.47-38.67 111.91-36.66 210.05-79.75 293.95-128.96 115.58-67.78 216.23-143.55 301.54-226.8 82.88-87.65 138.03-164.49 164.98-230.1 26.95-65.59 25.87-125.03-3.1-177.5-7.17-12.97-16.16-25.21-26.62-36.16-10.47-10.95-21.27-18.63-32.49-23-18.01-8.78-36.05-15.48-53.66-19.72-17.62-4.23-37.61-6.59-59.52-6.59-61.37 0-124.94 19.73-190.72 59.17-65.77 39.44-131.58 98.59-197.41 177.49-55.05 70.72-127.97 196.1-155.15 249.18-27.19 53.08-11.36 22.35-16.81 33.5-10 20.51-20.11 41.6-29.9 63.05-37.42 82-72.53 171.34-106.62 277.57-3.56 11.18-7.17 22.55-10.72 34.09l-10.22-6.55zm-8982.33-906.19c76.35-87.43 148.61-174.24 216.82-260.39 90.03-113.72 173.02-226.35 248.97-337.92 151.85-223.02 276.71-439.48 374.55-649.29l.17-.39c52.28-102.56 94.83-197.54 127.73-284.81 32.8-87.1 55.95-166.38 69.38-237.88 13.39-71.26 18.67-133.08 15.83-185.4-2.75-50.16-12.83-90.95-30.23-122.32-10.77-19.44-20.83-34.44-30.15-44.93-3.67-4.13-7.02-7.35-9.94-9.61-1.74-1.3-3.26-2.25-4.5-2.73-3.01-1.18-5.94-2.72-8.72-4.5l-.01.05c-9.5-6.13-19.95-10.81-31.21-13.97l-1.03-.3c-5.42-1.45-11.92-2.63-19.37-3.47-8.23-.98-17.39-1.45-27.41-1.45-82.54 0-165.16 49.92-247.93 149.76l.06.08c-42.26 50.99-84.83 114.83-127.68 191.49-43.07 77.09-86.33 166.78-129.74 269.11v.03c-41.41 102.75-80.91 214.74-118.56 335.95-37.58 121.04-73.36 251.76-107.38 392.02-34.04 140.53-65.9 289.34-95.54 446.41-22.6 120-43.99 244.84-64.11 374.46zm4910.85 57.63c-20.63 2.69-41.42 7.36-62.36 14.04l.02.01c-26.87 8.59-53.64 20.26-80.24 35.02-26.99 15-53.82 33.73-80.44 56.22-26.74 22.57-53.39 49.07-79.87 79.37l-.73.75c-29.83 28.09-58.12 59.47-84.89 94.06l.06.02c-27.04 35.02-52.39 72.96-75.99 113.85-23.67 41.06-46.64 84.68-68.86 130.84-22.4 46.52-43.54 94.5-63.36 143.85l-.17.37.15.09c-25.61 57.54-48.45 112.94-68.39 166.15-20.5 54.71-38.25 107.3-53.18 157.76-15.1 50.8-28.03 100.15-38.92 147.93-10.76 47.43-19.33 92.84-25.64 136.22-6.29 43.07-10.53 83.76-12.82 122.05l-.02.07.05.01c-2.28 38.34-2.57 73.35-.83 104.93 3.37 62.19 17.4 115.57 42.09 160.14 4.01 7.19 8.26 13.7 12.78 19.6 4.43 5.76 9.11 11 13.97 15.59 5.8 5.52 11.55 10.53 17.22 15.06 4.22 3.34 8.72 6.64 13.48 9.81 6.79 3.2 13.41 5.97 19.82 8.32 7.41 2.74 14.93 5.04 22.48 6.91 7.49 1.85 15.51 3.24 23.91 4.18 8.71.95 18.25 1.45 28.45 1.45 62.89 0 125.26-14.81 187.08-44.43 31.35-15 63.14-33.84 95.34-56.47 32.3-22.69 64.96-49.25 97.96-79.57l.5-.43c30.32-29.9 59.69-63.27 88.01-100.14 28.55-37.08 55.72-77.3 81.48-120.59 25.88-43.46 50.86-89.73 74.92-138.85 24.06-49.08 47.15-100.93 69.27-155.48l.14-.3-.07-.08c46.84-105.1 84.05-203.27 111.65-294.39 13.89-45.83 25.6-90.48 35.13-133.8 9.55-43.25 17.03-85.64 22.4-127.07 5.33-41.23 8.26-79.84 8.69-115.81.46-35.85-1.47-69.18-5.78-99.96-8.54-60.52-24.09-111.14-46.69-151.86-5.43-9.82-11.18-18.94-17.18-27.27l-.52-.74c-5.85-8.09-12.09-15.69-18.69-22.75-6.43-6.97-13.54-13.63-21.11-19.99-7.29-6.08-15.18-11.88-23.65-17.33l-1.79-1.19c-7.53-4.69-15.27-8.86-23.21-12.45-9.07-4.08-18.4-7.44-27.9-10.13-9.81-2.77-20.3-4.87-31.43-6.35-10.99-1.44-22.58-2.2-34.78-2.2-5.54 0-11.72-1.86-17.54-5.04zm2532.25 2072.78c-76.48 42.11-149.54 84.59-219.22 127.36-86.44 53.04-168.45 107.18-245.96 162.33-76.87 54.67-146.71 109.78-209.45 165.2-62.86 55.56-118.92 111.64-168.09 168.26l842.72-623.15zm-842.92 623.36l-.15.18c-51.38 56.62-93.77 110.37-127.21 161.17-33.42 50.79-58.06 98.73-73.83 143.85-30.62 87.32-28.18 163.02 7.3 227.02 12.55 22.6 26.22 40.94 40.95 54.93l.05.03.06-.03c7.39 7.05 15.46 13.62 24.04 19.72 9.01 6.39 18.7 12.3 28.99 17.75 10.41 5.53 20.69 10.11 30.8 13.71 9.89 3.51 20.13 6.26 30.7 8.16 11.22 2.02 23.25 3.53 35.94 4.55 12.92 1 26.82 1.51 41.6 1.51 79.39 0 157.94-27.59 235.62-82.78 39.65-28.17 77.88-63.71 114.66-106.58 36.8-42.9 72.79-93.96 107.9-153.06l.69-1.04c36.03-56.55 70.4-119.72 103.09-189.5 32.84-70.02 64.2-147.22 94.09-231.5 29.85-84.13 58.39-174.55 85.64-271.26 21.58-76.63 42.26-156.74 61.99-240.19l-842.92 623.36zm-172.32 773.92c-14.65-8.59-24.15-23.54-21.38-33.64l21.38 33.64zM8412.94 6866.93c6.98 15.53 8.99 33.92 6.12 55.11-2.49 18.2-8.79 39.26-18.83 63.08-8.23 19.54-16.43 48.06-24.58 85.5-8.51 39.16-16.73 86.68-24.61 142.45l-.43 2.51c-3.45 14.63-9.5 27.1-18.17 37.34h-.15c-9.53 11.25-21.71 19.54-36.43 24.81-12.49 4.49-25.03 5.54-37.59 3.21-11.04-2.08-21.4-6.73-30.97-13.98-43.26-29.83-90.33-46.93-141.09-51.21-251.75-21.3-344.95 74.09-438.95 251.99-40.44 79.68-77.83 167.8-112.08 264.3-126 355.17-217.69 732.38-303.29 1101.71-10.15 43.84-16.41 39.03-66.49 39.03h-188.66c-40.19-1.31-59.85 4.9-54.06-31.08 15.7-97.58 33.33-210.44 52.52-337.75 20.31-134.97 42.28-284.86 65.45-448.31v-.25l118.48-788.9c18.76-94.94 43.09-223.52 59.3-325.36 5.21-32.77 19.84-31.7 53.19-31.62 94.84-.03 148.35-.05 243.18-.06 41.02 0 62.15-6.24 54.11 34.46l-85.04 431.55-6.1 30.56-2.36 3.32 2.02-9.93c52.38-98.65 331.16-528.26 648.58-590.58 70.3-25.19 128.91-33.86 175.79-26.01 52.9 8.88 90 36.92 111.14 84.11z" fill="#70a43a" fill-rule="nonzero"/><path d="M6587.05 7751.87c170.62 126.36 370.67 151.39 606.31 54.1-16.26 64.02-32.5 128.06-48.75 192.09-231.29 84.32-428.83 40.12-603.26-91.98 15.24-51.41 30.47-102.81 45.7-154.21z" fill="#70a43a"/><path d="M16942.82 2300.68L13009.02 29.5c-37.48-21.65-78.65-30.85-118.89-29.33-40.28-1.52-81.45 7.68-118.93 29.33L8837.4 2300.68c-105.96 61.18-142.29 196.73-81.07 302.69l346.21 599.65c61.18 105.97 196.73 142.33 302.66 81.12l525.43-303.33V6068c0 218.72 177.28 396.07 396.06 396.07h1996.02c-4.73-25.82-9.95-51.6-15.58-77.31-26.23-119.75-61.14-237.79-102.5-353.78-1.86-5.18-3.83-10.28-5.7-15.46-29.43-81-61.36-161.19-97.73-239.51-23.62-51.11-48.85-101.45-75.3-151.23-259.73 84.39-696.9 134.24-1062.19-277.73-516.11-581.92 30.26-1394.84-313.09-1747.99-26.23-27.01-21.53-77.38 16.06-75.33 505.42 27.42 2353.97 238.94 1648.46 1865.76-241.92-294.39-527.85-539.11-834.79-734.24 285.37 252.85 535.97 549.8 727.82 884.06 27.54 47.95 54.03 96.65 79.1 146.13 14.61 28.69 27.8 58.16 41.59 87.26 80.33 170.35 146.31 347.7 195.23 530.53 2.13-7.56 3.99-15.23 6.15-22.76 37-129.48 81.41-256.46 129.78-381.8 71.09-184.1 152.61-363.87 246.39-536.94 78.21-144.75 164.2-284.89 256.87-420.14 220.27-321.43 479.63-614.44 765.49-876.56 55.78-67.22 113.04-133.54 172.47-198.33-385.48 243.64-747.23 542.05-1065.65 892.4-181.12-305.31-363.76-837.44 44.49-1413.81 598.23-844.7 1832.74-348.97 2141.77-953.65 16.06-31.45 63.08-26.12 69.49 8.61 110.51 599.35 443.24 3128.77-1926.38 2654.8-12.37-2.5-24.25-6.67-36.33-10.29-48.99 75.27-95.23 152.28-139.68 230.3-34.35 60.33-67.89 121.13-99.37 183.02-118.86 233.13-215.77 476.77-290.85 726.45-15.68 52.08-31.71 104.14-45.34 156.78a4192.699 4192.699 0 0 0-29.25 120.76h2729.43c218.71 0 396.02-177.32 396.02-396.03V2980.77l525.4 303.37c105.96 61.18 241.51 24.89 302.62-81.12l346.25-599.65c61.25-106 24.89-241.51-81.04-302.69z" fill="#b0cb1f"/><g clip-path="url(#a)"><path d="M12475.49-311.45c728.81 1013.34 1953.83 1757.03 2049.08 3500.65 16.69 971.91-530.56 1960.95-1236.61 2755.8-107.73 121.32-148.4 288.94-143.34 482.98.62 22.46-26.5 17.77-26.31 40.97l-267.77-6.51c-32.01 31.93 1.23-21.41-3.39-52.52-18.92-127.75-111.27-243.09-205.21-354.11-923.01-1095.6-1306.57-1576.82-1405.36-2554.7-219.28-1646.53 1597.7-3334.61 1238.91-3812.56z" fill="#72a439"/><path d="M10735.64 5939.14c-871.02-552.62-1296.01-1362.47-1597.98-2185.8 291.32 330.92 735.61 405.31 1153.78 501.66 1191.21 273.36 2275.88 1248.72 2609.99 1998.46 334.11-749.74 1418.78-1725.1 2609.99-1998.46 418.17-96.35 862.45-170.74 1153.78-501.66-301.97 823.33-726.96 1633.18-1597.98 2185.8-1174.02 744.82-3157.56 744.82-4331.58 0z" fill="#72a439" fill-rule="nonzero"/><path d="M12818.17 6495.53c.02-31.08-.28-61.43-.84-91.16-425.02-424.76-852.29-632.96-1608.06-1133.34-641.57-424.8-1153.9-834.17-1336.5-1678.22-168.18-778.46 83.3-1494.15-146.2-2255.81 782.38 351.54 1968.95 160.51 2691.45 1294.19 242.33 380.82 363.17 683.63 426.58 975.73 66.04-277.56 186.49-567.95 415.71-928.13 722.5-1133.68 1909.07-942.66 2691.45-1294.19-229.5 761.66 21.98 1477.35-146.2 2255.81-182.6 844.05-694.92 1253.42-1336.5 1678.22-781.15 517.2-1211.35 722.23-1650.89 1176.9z" fill="#c7d30a"/><path d="M12870.59 3481.28c67.77-244.63 181.23-504.7 377.5-813.19 262.36-411.66 597.66-637.74 940.94-789.54 195.58 371.2 325.46 796.63 335.54 1310.65 12.66 653.71-259.59 1314.98-678.02 1920.01 468.63-386.2 1088.6-744.52 1741.99-871.54-245.78 982.71-2429.17 1829.24-2599.24 2258.89-81.45 3.21-161.61 2.95-239.99-1.1-143.23-399.14-2407.76-1359.46-2634.66-2258.72 653.39 127.02 1313.4 466.79 1782.02 852.98-418.42-605.03-690.67-1266.29-678.01-1920.01 10.08-514.02 137.79-938.71 333.37-1309.91 343.28 151.8 668.52 387.85 930.89 799.51 200.08 314.5 317.24 575.88 387.67 821.97z" fill="#b0cb1f" fill-rule="nonzero"/></g><path d="M16942.82 2300.68L13009.02 29.5c-37.48-21.65-78.65-30.85-118.89-29.33-40.28-1.52-81.45 7.68-118.93 29.33L8837.4 2300.68c-105.96 61.18-142.29 196.73-81.07 302.69l346.21 599.65c61.18 105.97 196.73 142.33 302.66 81.12l525.43-303.33V6068c0 218.72 177.28 396.07 396.06 396.07h1996.02c-4.73-25.82-9.95-51.6-15.58-77.31-26.23-119.75-61.14-237.79-102.5-353.78-1.86-5.18-3.83-10.28-5.7-15.46-29.43-81-61.36-161.19-97.73-239.51-23.62-51.11-48.85-101.45-75.3-151.23-259.73 84.39-696.9 134.24-1062.19-277.73-516.11-581.92 30.26-1394.84-313.09-1747.99-26.23-27.01-21.53-77.38 16.06-75.33 505.42 27.42 2353.97 238.94 1648.46 1865.76-241.92-294.39-527.85-539.11-834.79-734.24 285.37 252.85 535.97 549.8 727.82 884.06 27.54 47.95 54.03 96.65 79.1 146.13 14.61 28.69 27.8 58.16 41.59 87.26 80.33 170.35 146.31 347.7 195.23 530.53 2.13-7.56 3.99-15.23 6.15-22.76 37-129.48 81.41-256.46 129.78-381.8 71.09-184.1 152.61-363.87 246.39-536.94 78.21-144.75 164.2-284.89 256.87-420.14 220.27-321.43 479.63-614.44 765.49-876.56 55.78-67.22 113.04-133.54 172.47-198.33-385.48 243.64-747.23 542.05-1065.65 892.4-181.12-305.31-363.76-837.44 44.49-1413.81 598.23-844.7 1832.74-348.97 2141.77-953.65 16.06-31.45 63.08-26.12 69.49 8.61 110.51 599.35 443.24 3128.77-1926.38 2654.8-12.37-2.5-24.25-6.67-36.33-10.29-48.99 75.27-95.23 152.28-139.68 230.3-34.35 60.33-67.89 121.13-99.37 183.02-118.86 233.13-215.77 476.77-290.85 726.45-15.68 52.08-31.71 104.14-45.34 156.78a4192.699 4192.699 0 0 0-29.25 120.76h2729.43c218.71 0 396.02-177.32 396.02-396.03V2980.77l525.4 303.37c105.96 61.18 241.51 24.89 302.62-81.12l346.25-599.65c61.25-106 24.89-241.51-81.04-302.69z" fill="none"/><path d="M4609.73 9888.9h263.38v21.46c0 100.49-28.46 179.85-85.47 238.05-57.01 58.2-134.73 87.26-233.28 87.26-30.11 0-58.68-3.13-85.77-9.54-27.24-6.4-52.28-15.79-75.19-27.98-52.39-28.76-92.89-68.52-121.35-119.26-28.43-50.79-42.7-108.39-42.7-173 0-53.17 8.45-101.23 25.44-144.12 17.11-42.88 42.74-80.7 76.98-113.15 28.88-27.39 62.23-48.11 100.34-61.93 38.12-14.01 80.26-21.01 126.53-21.01 61.37 0 114.5 11.17 159.62 33.34 45.12 22.36 82.49 55.85 112.12 100.53l-63.72 51.04c-22.95-38.71-51.68-67.58-85.92-86.92-34.24-19.38-74.14-29.06-119.56-29.06-74.15 0-134.28 25.03-180.45 75.04-46.27 50.04-69.38 115.39-69.38 196.24 0 76.23 23.55 138.75 70.42 187.6 46.91 48.81 106.75 73.22 179.41 73.22 64.05 0 117.33-19.34 159.91-58.2 42.59-38.86 66.25-89.31 70.87-151.57h-182.23v-68.04zm1046.61-166.14l-101.53 235.07h203.21l-101.68-235.07zm0-167.93l290.62 663.85h-82.49l-82.9-195.79h-249.53l-82.79 195.79h-82.49l289.58-663.85zm825.07 663.85v-638.55h149.93c42.85 0 74.15 2.39 94.08 7.16 19.93 4.91 37.52 13.07 52.57 24.7 18.89 14.75 33.65 34.69 44.04 59.54 10.58 24.89 15.8 52.42 15.8 82.64 0 52.28-14.61 91.99-43.93 119.27-29.17 27.23-72.06 40.8-128.47 40.8h-13.56l244.01 304.44h-96.46l-233.02-304.44h-10.85v304.44h-74.14zm74.14-574.39v213.65h57.9c59.4 0 99.15-7.6 119.27-22.92 20.08-15.2 30.07-41.84 30.07-79.95 0-40.95-10.28-69.68-30.96-86.22-20.72-16.36-60.14-24.56-118.38-24.56h-57.9zm949.41 502.93h48.36c78.62 0 132.98-3.43 163.19-10.28 30.22-6.86 55.37-18.45 75.49-35.14 26.2-21.72 45.98-49.85 59.69-84.39 13.71-34.39 20.53-73.85 20.53-118.37 0-44.83-6.67-84.14-20.23-118.08-13.56-33.79-33.5-61.78-59.99-83.94-20.12-16.85-45.57-28.77-76.53-35.89-30.96-7.15-85.02-10.73-162.15-10.73h-48.36v496.82zm-76.83 71.46v-638.55h122.66c90.68 0 154.55 4.62 191.62 13.68 37.07 9.24 69.67 24.59 97.51 46.01 36.62 28.28 64.49 64.31 83.38 108.24 18.89 43.93 28.28 94.56 28.28 151.72 0 57.01-9.39 107.49-28.13 151.27-18.74 43.6-46.61 79.63-83.53 107.94-27.84 21.43-59.69 36.78-95.27 45.98-35.59 9.09-91.1 13.71-166.44 13.71h-150.08zm1116.43 0v-638.55h336.75v69.38H8620.5v183.13h260.81v70.72H8620.5v244.6h260.81v70.72h-336.75zm934.06 0v-663.85l467.19 510.34v-485.04h72.36v663.4l-467.2-504.71v479.86h-72.35zm3787.18-485.93c-30.52-33.05-63.12-57.64-97.66-73.4-34.69-15.95-72.95-23.85-114.8-23.85-33.79 0-66.69 6.86-98.84 20.57-32.01 13.52-59.99 32.6-83.54 57-24.4 25.3-42.7 53.62-54.92 84.88-12.22 31.26-18.33 65.8-18.33 103.62 0 29.62 3.58 57.01 10.88 82.04 7.3 25 18.18 47.92 32.75 68.78 25.63 36.33 57.04 64.31 94.41 83.95 37.38 19.67 77.69 29.47 121.02 29.47 40.8 0 78.62-8.46 113.46-25.3 34.98-16.8 66.84-41.99 95.57-75.48v100.78c-31.71 22.95-65.8 40.35-102.28 52.13-36.48 11.77-74.29 17.73-113.16 17.73-33.79 0-66.69-5.06-98.7-15.05-31.85-9.99-61.92-24.7-89.75-43.93-46.61-32.15-82.05-71.91-106.6-118.93-24.59-47.21-36.93-98.89-36.93-155.3 0-49.14 8.16-93.96 24.71-134.13 16.39-40.35 41.39-76.83 75.19-109.73 32.6-31.41 68.63-54.96 108.23-70.42 39.46-15.65 82.65-23.4 129.52-23.4 36.92 0 72.65 5.67 107.19 16.84 34.69 11.18 68.78 28.58 102.58 52.09v99.04zm598.34 485.93v-638.55h336.75v69.38h-260.81v183.13h260.81v70.72h-260.81v244.6h260.81v70.72h-336.75zm934.06 0v-663.85l467.19 510.34v-485.04h72.36v663.4l-467.2-504.71v479.86h-72.35zm1272.32 0v-566.19h-180.59v-72.36h437.12v72.36h-179.7v566.19h-76.83zm809.87 0v-638.55h336.75v69.38h-260.81v183.13h260.81v70.72h-260.81v244.6h260.81v70.72h-336.75zm934.05 0v-638.55h149.94c42.84 0 74.14 2.39 94.07 7.16 19.94 4.91 37.52 13.07 52.58 24.7 18.89 14.75 33.64 34.69 44.04 59.54 10.58 24.89 15.8 52.42 15.8 82.64 0 52.28-14.61 91.99-43.93 119.27-29.18 27.23-72.06 40.8-128.47 40.8h-13.56l244.01 304.44h-96.47l-233.02-304.44h-10.84v304.44h-74.15zm74.15-574.39v213.65h57.9c59.39 0 99.15-7.6 119.27-22.92 20.08-15.2 30.07-41.84 30.07-79.95 0-40.95-10.29-69.68-30.97-86.22-20.71-16.36-60.13-24.56-118.37-24.56h-57.9z" fill="#86755d" fill-rule="nonzero"/></svg>